<!DOCTYPE svg PUBLIC "-//W3C//DTD SVG 1.1//EN" "http://www.w3.org/Graphics/SVG/1.1/DTD/svg11.dtd">
<!-- Uploaded to: SVG Repo, www.svgrepo.com, Transformed by: SVG Repo Mixer Tools -->
<svg version="1.1" id="Layer_1" xmlns="http://www.w3.org/2000/svg" xmlns:xlink="http://www.w3.org/1999/xlink" viewBox="0 0 512 512" xml:space="preserve" width="800px" height="800px" fill="#000000">
<g id="SVGRepo_bgCarrier" stroke-width="0"/>
<g id="SVGRepo_tracerCarrier" stroke-linecap="round" stroke-linejoin="round"/>
<g id="SVGRepo_iconCarrier"> <path style="fill:#6EAECD;" d="M346.742,232.505H137.819c-49.501,0-90.001,40.5-90.001,90.001v182.551 c0,3.834,3.109,6.943,6.943,6.943h54.058v-39.045c0-17.639,14.299-31.938,31.938-31.938h118.994 c17.639,0,32.071,14.432,32.071,32.071v31.969c0,3.834,3.109,6.943,6.943,6.943h48.512V384.453h17.891 c19.521,0,35.346,15.825,35.346,35.346v65.091c0,3.422-2.774,6.195-6.195,6.195h-0.057c-3.271,0-5.947-2.676-5.947-5.947v-1.2 c0-1.997-1.417-3.826-3.402-4.053c-2.474-0.282-4.362,1.641-4.362,4.055v4.792c0,6.087,4.98,11.067,11.067,11.067h21.467 c10.586,0,17.096-8.694,19.373-19.303c2.248-11.308,12.719-65.359,20.92-125.462C462.194,290.398,411.979,232.505,346.742,232.505z"/> <path style="fill:#303E48;" d="M398.786,302.994c-2.662-0.765-5.086,1.659-4.32,4.32c1.173,4.079,3.365,7.927,6.58,11.142 c3.215,3.215,7.063,5.406,11.142,6.58c2.662,0.766,5.086-1.659,4.32-4.32c-1.173-4.079-3.365-7.927-6.58-11.142 C406.713,306.36,402.866,304.169,398.786,302.994z"/> <path style="fill:#E6E6E6;" d="M462.802,411.339c-18.254,5.504-38.073-3.925-51.546-17.126c-4.075-3.993-11.506-0.774-15.021,1.383 c-0.444,0.273-0.709,0.752-0.709,1.272l0,0c0,0.302,0.09,0.601,0.258,0.852c14.931,22.165,43.91,28.774,67.774,15.617 c0.03-0.017,0.06-0.033,0.09-0.05C464.768,412.668,464.027,410.97,462.802,411.339z"/> <path style="fill:#ffffff;" d="M363.648,233.83c-5.499-0.868-11.142-1.333-16.905-1.333H137.819 c-22.094,0-42.382,8.089-58.089,21.425l111.537,111.5c11.599,11.599,30.406,11.577,42.005-0.022l126.102-126.161 C361.044,237.566,362.463,235.746,363.648,233.83z"/> <path style="fill:#b51a00;" d="M339.943,232.496H137.819c-15.108,0-29.368,3.793-41.904,10.443l101.053,101.022 c8.751,8.751,22.939,8.733,31.69-0.018C228.657,343.944,339.335,233.605,339.943,232.496z"/> <path style="fill:#ffffff;" d="M137.819,232.496c-7.901,0-15.57,1.046-22.884,2.982l88.441,88.443 c4.912,4.912,12.876,4.909,17.788-0.003l91.507-91.421H137.819V232.496z"/> <path style="fill:#b51a00;" d="M142.982,232.496l64.324,64.336c2.8,2.8,7.341,2.803,10.143,0.002l64.39-64.337H142.982V232.496z"/> <path style="fill:#ffffff;" d="M174.497,232.496l32.808,32.733c2.8,2.8,7.341,2.712,10.143-0.09l32.814-32.644h-75.765V232.496z"/> <g> <path style="fill:#b51a00;" d="M164.066,232.495c-4.595,0-8.318-4.41-8.318-9.849V81.73c0-5.439,3.723-9.849,8.318-9.849 s8.318,4.41,8.318,9.849v140.916C172.384,228.085,168.661,232.495,164.066,232.495z"/> <path style="fill:#b51a00;" d="M304.596,232.495c-4.595,0-8.318-4.41-8.318-9.849V81.73c0-5.439,3.723-9.849,8.318-9.849 s8.318,4.41,8.318,9.849v140.916C312.914,228.085,309.191,232.495,304.596,232.495z"/> </g> <path style="fill:#9DCEE0;" d="M346.742,337.085c0,5.359-3.722,10-8.954,11.162l-46.853,10.411 c-6.214,1.381-11.849-5.231-11.849-13.903v-72.69c0-8.494,5.416-15.054,11.529-13.967l46.693,8.301 c5.458,0.97,9.433,5.715,9.433,11.257L346.742,337.085L346.742,337.085z"/> <g> <path style="fill:#5388B4;" d="M119.892,511.899H54.743c-3.834,0-6.943-3.108-6.943-6.943v-9.879h59.007 c7.227,0,13.085,5.858,13.085,13.085C119.892,508.162,119.892,511.899,119.892,511.899z"/> <path style="fill:#5388B4;" d="M359.459,511.899h-60.712c-3.834,0-6.943-3.108-6.943-6.943v-9.879h54.336 c7.326,0,13.319,5.994,13.319,13.319V511.899z"/> </g> <path style="fill:#ffaa00;" d="M304.597,80.201c-13.741-31.055-39.736-51.585-70.265-55.327 c-30.53,3.742-56.525,24.272-70.265,55.327H304.597z"/> <path style="fill:#a96800;" d="M234.454,24.889l-0.123-0.016c-30.53,3.735-56.525,24.32-70.265,55.327h24.031 c10.116-23.539,26.877-40.291,47.199-49.101C238.335,29.781,237.744,25.295,234.454,24.889z"/> <path style="fill:#ffaa00;" d="M333.76,232.495H132.641l0,0c0-18.377,14.896-33.273,33.273-33.273h98.716h16.637h19.221 C318.864,199.222,333.76,214.118,333.76,232.495L333.76,232.495z"/> <path style="fill:#a96800;" d="M319.107,88.519H152.918c-4.063,0-7.357-3.724-7.357-8.318c0-4.594,3.293-8.318,7.357-8.318h166.188 c4.063,0,7.357,3.724,7.357,8.318C326.463,84.794,323.17,88.519,319.107,88.519z"/> <circle style="fill:#F44A46;" cx="234.332" cy="8.318" r="8.318"/> <path style="fill:#a96800;" d="M132.641,232.496L132.641,232.496H333.76l0,0c0-6.062-1.629-12.2-4.462-16.637H137.103 C134.271,220.296,132.641,226.434,132.641,232.496z"/> <g> <rect x="155.752" y="88.518" style="fill:#FFB04C;" width="16.637" height="13.977"/> <rect x="296.276" y="88.518" style="fill:#FFB04C;" width="16.637" height="13.977"/> </g> </g>
</svg>